<svg width="195" height="22" viewBox="0 0 195 22" fill="none" xmlns="http://www.w3.org/2000/svg">
<path d="M6.55201 17.3999C5.84801 17.3999 5.14401 17.3439 4.44001 17.2319C3.73601 17.1359 3.07201 16.9839 2.44801 16.7759C1.82401 16.5519 1.26401 16.2799 0.768009 15.9599C0.480009 15.7679 0.280009 15.5359 0.168009 15.2639C0.0560093 14.9919 0.0160093 14.7279 0.0480093 14.4719C0.0960093 14.1999 0.200009 13.9679 0.360009 13.7759C0.536009 13.5679 0.752009 13.4399 1.00801 13.3919C1.26401 13.3439 1.54401 13.4159 1.84801 13.6079C2.55201 14.0239 3.29601 14.3279 4.08001 14.5199C4.86401 14.7119 5.68801 14.8079 6.55201 14.8079C7.81601 14.8079 8.73601 14.5999 9.31201 14.1839C9.88801 13.7519 10.176 13.1999 10.176 12.5279C10.176 11.9679 9.96801 11.5279 9.55201 11.2079C9.15201 10.8879 8.45601 10.6239 7.46401 10.4159L4.82401 9.86391C3.30401 9.54391 2.16801 9.00791 1.41601 8.25591C0.680009 7.48791 0.312009 6.47991 0.312009 5.23191C0.312009 4.44791 0.472009 3.73591 0.792009 3.09591C1.11201 2.45591 1.56001 1.90391 2.13601 1.43991C2.72801 0.975912 3.42401 0.623911 4.22401 0.383911C5.04001 0.127911 5.93601 -8.86917e-05 6.91201 -8.86917e-05C7.87201 -8.86917e-05 8.78401 0.119911 9.64801 0.359911C10.512 0.599911 11.288 0.951911 11.976 1.41591C12.232 1.59191 12.4 1.80791 12.48 2.06391C12.576 2.31991 12.6 2.57591 12.552 2.83191C12.504 3.07191 12.392 3.27991 12.216 3.45591C12.04 3.63191 11.816 3.73591 11.544 3.76791C11.288 3.79991 10.992 3.71991 10.656 3.52791C10.064 3.19191 9.46401 2.95191 8.85601 2.80791C8.24801 2.66391 7.59201 2.59191 6.88801 2.59191C6.15201 2.59191 5.52001 2.69591 4.99201 2.90391C4.46401 3.11191 4.05601 3.40791 3.76801 3.79191C3.49601 4.15991 3.36001 4.59991 3.36001 5.11191C3.36001 5.68791 3.55201 6.15191 3.93601 6.50391C4.32001 6.83991 4.97601 7.10391 5.90401 7.29591L8.52001 7.84791C10.104 8.18391 11.28 8.71191 12.048 9.43191C12.832 10.1519 13.224 11.1119 13.224 12.3119C13.224 13.0799 13.064 13.7759 12.744 14.3999C12.44 15.0239 11.992 15.5599 11.4 16.0079C10.824 16.4559 10.128 16.7999 9.31201 17.0399C8.49601 17.2799 7.57601 17.3999 6.55201 17.3999ZM21.3566 17.3999C20.0286 17.3999 18.8846 17.1519 17.9246 16.6559C16.9646 16.1599 16.2206 15.4559 15.6926 14.5439C15.1806 13.6319 14.9246 12.5519 14.9246 11.3039C14.9246 10.0879 15.1726 9.02391 15.6686 8.11191C16.1806 7.19991 16.8766 6.48791 17.7566 5.97591C18.6526 5.44791 19.6686 5.18391 20.8046 5.18391C21.6366 5.18391 22.3806 5.31991 23.0366 5.59191C23.7086 5.86391 24.2766 6.25591 24.7406 6.76791C25.2206 7.27991 25.5806 7.90391 25.8206 8.63991C26.0766 9.35991 26.2046 10.1759 26.2046 11.0879C26.2046 11.3759 26.1006 11.5999 25.8926 11.7599C25.7006 11.9039 25.4206 11.9759 25.0526 11.9759H17.3486V10.2479H24.0926L23.7086 10.6079C23.7086 9.87191 23.5966 9.25591 23.3726 8.75991C23.1646 8.26391 22.8526 7.88791 22.4366 7.63191C22.0366 7.35991 21.5326 7.22391 20.9246 7.22391C20.2526 7.22391 19.6766 7.38391 19.1966 7.70391C18.7326 8.00791 18.3726 8.44791 18.1166 9.02391C17.8766 9.58391 17.7566 10.2559 17.7566 11.0399V11.2079C17.7566 12.5199 18.0606 13.5039 18.6686 14.1599C19.2926 14.7999 20.2046 15.1199 21.4046 15.1199C21.8206 15.1199 22.2846 15.0719 22.7966 14.9759C23.3246 14.8639 23.8206 14.6799 24.2846 14.4239C24.6206 14.2319 24.9166 14.1519 25.1726 14.1839C25.4286 14.1999 25.6286 14.2879 25.7726 14.4479C25.9326 14.6079 26.0286 14.8079 26.0606 15.0479C26.0926 15.2719 26.0446 15.5039 25.9166 15.7439C25.8046 15.9839 25.6046 16.1919 25.3166 16.3679C24.7566 16.7199 24.1086 16.9839 23.3726 17.1599C22.6526 17.3199 21.9806 17.3999 21.3566 17.3999ZM32.5884 17.3999C31.2604 17.3999 30.2604 17.0239 29.5884 16.2719C28.9164 15.5039 28.5804 14.3839 28.5804 12.9119V1.55991C28.5804 1.06391 28.7084 0.687911 28.9644 0.431911C29.2204 0.175911 29.5884 0.0479107 30.0684 0.0479107C30.5484 0.0479107 30.9164 0.175911 31.1724 0.431911C31.4444 0.687911 31.5804 1.06391 31.5804 1.55991V12.7679C31.5804 13.5039 31.7324 14.0479 32.0364 14.3999C32.3564 14.7519 32.8044 14.9279 33.3804 14.9279C33.5084 14.9279 33.6284 14.9279 33.7404 14.9279C33.8524 14.9119 33.9644 14.8959 34.0764 14.8799C34.3004 14.8479 34.4524 14.9119 34.5324 15.0719C34.6124 15.2159 34.6524 15.5199 34.6524 15.9839C34.6524 16.3839 34.5724 16.6959 34.4124 16.9199C34.2524 17.1439 33.9884 17.2799 33.6204 17.3279C33.4604 17.3439 33.2924 17.3599 33.1164 17.3759C32.9404 17.3919 32.7644 17.3999 32.5884 17.3999ZM41.9113 17.3999C40.5833 17.3999 39.4393 17.1519 38.4793 16.6559C37.5193 16.1599 36.7753 15.4559 36.2473 14.5439C35.7353 13.6319 35.4793 12.5519 35.4793 11.3039C35.4793 10.0879 35.7273 9.02391 36.2233 8.11191C36.7353 7.19991 37.4313 6.48791 38.3113 5.97591C39.2073 5.44791 40.2233 5.18391 41.3593 5.18391C42.1913 5.18391 42.9353 5.31991 43.5913 5.59191C44.2633 5.86391 44.8313 6.25591 45.2953 6.76791C45.7753 7.27991 46.1353 7.90391 46.3753 8.63991C46.6313 9.35991 46.7593 10.1759 46.7593 11.0879C46.7593 11.3759 46.6553 11.5999 46.4473 11.7599C46.2553 11.9039 45.9753 11.9759 45.6073 11.9759H37.9033V10.2479H44.6473L44.2633 10.6079C44.2633 9.87191 44.1513 9.25591 43.9273 8.75991C43.7193 8.26391 43.4073 7.88791 42.9913 7.63191C42.5913 7.35991 42.0873 7.22391 41.4793 7.22391C40.8073 7.22391 40.2313 7.38391 39.7513 7.70391C39.2873 8.00791 38.9273 8.44791 38.6713 9.02391C38.4313 9.58391 38.3113 10.2559 38.3113 11.0399V11.2079C38.3113 12.5199 38.6153 13.5039 39.2233 14.1599C39.8473 14.7999 40.7593 15.1199 41.9593 15.1199C42.3753 15.1199 42.8393 15.0719 43.3513 14.9759C43.8793 14.8639 44.3753 14.6799 44.8393 14.4239C45.1753 14.2319 45.4713 14.1519 45.7273 14.1839C45.9833 14.1999 46.1833 14.2879 46.3273 14.4479C46.4873 14.6079 46.5833 14.8079 46.6153 15.0479C46.6473 15.2719 46.5993 15.5039 46.4713 15.7439C46.3593 15.9839 46.1593 16.1919 45.8713 16.3679C45.3113 16.7199 44.6633 16.9839 43.9273 17.1599C43.2073 17.3199 42.5353 17.3999 41.9113 17.3999ZM54.5591 17.3999C53.3271 17.3999 52.2551 17.1519 51.3431 16.6559C50.4311 16.1439 49.7271 15.4239 49.2311 14.4959C48.7351 13.5679 48.4871 12.4799 48.4871 11.2319C48.4871 10.2879 48.6231 9.44791 48.8951 8.71191C49.1831 7.95991 49.5911 7.32791 50.1191 6.81591C50.6471 6.28791 51.2871 5.88791 52.0391 5.61591C52.7911 5.32791 53.6311 5.18391 54.5591 5.18391C55.0871 5.18391 55.6551 5.25591 56.2631 5.39991C56.8871 5.54391 57.4711 5.78391 58.0151 6.11991C58.2711 6.27991 58.4391 6.47191 58.5191 6.69591C58.5991 6.91991 58.6151 7.15191 58.5671 7.39191C58.5191 7.61591 58.4151 7.81591 58.2551 7.99191C58.1111 8.15191 57.9271 8.25591 57.7031 8.30391C57.4791 8.33591 57.2311 8.27991 56.9591 8.13591C56.6071 7.92791 56.2471 7.77591 55.8791 7.67991C55.5111 7.56791 55.1591 7.51191 54.8231 7.51191C54.2951 7.51191 53.8311 7.59991 53.4311 7.77591C53.0311 7.93591 52.6871 8.17591 52.3991 8.49591C52.1271 8.79991 51.9191 9.18391 51.7751 9.64791C51.6311 10.1119 51.5591 10.6479 51.5591 11.2559C51.5591 12.4399 51.8391 13.3759 52.3991 14.0639C52.9751 14.7359 53.7831 15.0719 54.8231 15.0719C55.1591 15.0719 55.5031 15.0239 55.8551 14.9279C56.2231 14.8319 56.5911 14.6799 56.9591 14.4719C57.2311 14.3279 57.4711 14.2799 57.6791 14.3279C57.9031 14.3759 58.0871 14.4879 58.2311 14.6639C58.3751 14.8239 58.4631 15.0239 58.4951 15.2639C58.5271 15.4879 58.4951 15.7119 58.3991 15.9359C58.3191 16.1599 58.1591 16.3439 57.9191 16.4879C57.3911 16.8079 56.8311 17.0399 56.2391 17.1839C55.6471 17.3279 55.0871 17.3999 54.5591 17.3999ZM65.8783 17.3999C64.8383 17.3999 63.9663 17.2239 63.2623 16.8719C62.5743 16.5199 62.0623 16.0079 61.7263 15.3359C61.3903 14.6479 61.2223 13.7999 61.2223 12.7919V7.67991H59.9743C59.5903 7.67991 59.2943 7.58391 59.0863 7.39191C58.8783 7.18391 58.7743 6.90391 58.7743 6.55191C58.7743 6.18391 58.8783 5.90391 59.0863 5.71191C59.2943 5.51991 59.5903 5.42391 59.9743 5.42391H61.2223V3.23991C61.2223 2.74391 61.3503 2.36791 61.6063 2.11191C61.8783 1.85591 62.2543 1.72791 62.7343 1.72791C63.2143 1.72791 63.5823 1.85591 63.8383 2.11191C64.0943 2.36791 64.2223 2.74391 64.2223 3.23991V5.42391H66.7663C67.1503 5.42391 67.4463 5.51991 67.6543 5.71191C67.8623 5.90391 67.9663 6.18391 67.9663 6.55191C67.9663 6.90391 67.8623 7.18391 67.6543 7.39191C67.4463 7.58391 67.1503 7.67991 66.7663 7.67991H64.2223V12.6239C64.2223 13.3919 64.3903 13.9679 64.7263 14.3519C65.0623 14.7359 65.6063 14.9279 66.3583 14.9279C66.6303 14.9279 66.8703 14.9039 67.0783 14.8559C67.2863 14.8079 67.4703 14.7759 67.6303 14.7599C67.8223 14.7439 67.9823 14.8079 68.1103 14.9519C68.2383 15.0799 68.3023 15.3519 68.3023 15.7679C68.3023 16.0879 68.2463 16.3759 68.1343 16.6319C68.0383 16.8719 67.8543 17.0399 67.5823 17.1359C67.3743 17.1999 67.1023 17.2559 66.7663 17.3039C66.4303 17.3679 66.1343 17.3999 65.8783 17.3999ZM79.2049 21.6719C78.8529 21.6719 78.5649 21.5759 78.3409 21.3839C78.1169 21.2079 77.9809 20.9679 77.9329 20.6639C77.9009 20.3599 77.9569 20.0399 78.1009 19.7039L79.7329 16.0799V17.3279L75.3649 7.22391C75.2209 6.87191 75.1729 6.54391 75.2209 6.23991C75.2689 5.93591 75.4129 5.69591 75.6529 5.51991C75.9089 5.32791 76.2529 5.23191 76.6849 5.23191C77.0529 5.23191 77.3489 5.31991 77.5729 5.49591C77.7969 5.65591 77.9969 5.96791 78.1729 6.43191L81.4129 14.5199H80.6929L84.0049 6.40791C84.1809 5.95991 84.3889 5.65591 84.6289 5.49591C84.8689 5.31991 85.1889 5.23191 85.5889 5.23191C85.9409 5.23191 86.2209 5.32791 86.4289 5.51991C86.6369 5.69591 86.7649 5.93591 86.8129 6.23991C86.8609 6.52791 86.8049 6.84791 86.6449 7.19991L80.8129 20.5199C80.6049 20.9679 80.3809 21.2719 80.1409 21.4319C79.9009 21.5919 79.5889 21.6719 79.2049 21.6719ZM93.9793 17.3999C92.7633 17.3999 91.7073 17.1519 90.8113 16.6559C89.9153 16.1599 89.2193 15.4559 88.7233 14.5439C88.2273 13.6159 87.9793 12.5279 87.9793 11.2799C87.9793 10.3359 88.1153 9.49591 88.3873 8.75991C88.6753 8.00791 89.0833 7.36791 89.6113 6.83991C90.1393 6.29591 90.7713 5.88791 91.5073 5.61591C92.2433 5.32791 93.0673 5.18391 93.9793 5.18391C95.1953 5.18391 96.2513 5.43191 97.1473 5.92791C98.0433 6.42391 98.7393 7.12791 99.2353 8.03991C99.7313 8.95191 99.9793 10.0319 99.9793 11.2799C99.9793 12.2239 99.8353 13.0719 99.5473 13.8239C99.2753 14.5759 98.8753 15.2239 98.3473 15.7679C97.8193 16.2959 97.1873 16.7039 96.4513 16.9919C95.7153 17.2639 94.8913 17.3999 93.9793 17.3999ZM93.9793 15.1199C94.5713 15.1199 95.0913 14.9759 95.5393 14.6879C95.9873 14.3999 96.3313 13.9759 96.5713 13.4159C96.8273 12.8399 96.9553 12.1279 96.9553 11.2799C96.9553 9.99991 96.6833 9.04791 96.1393 8.42391C95.5953 7.78391 94.8753 7.46391 93.9793 7.46391C93.3873 7.46391 92.8673 7.60791 92.4193 7.89591C91.9713 8.16791 91.6193 8.59191 91.3633 9.16791C91.1233 9.72791 91.0033 10.4319 91.0033 11.2799C91.0033 12.5439 91.2753 13.5039 91.8193 14.1599C92.3633 14.7999 93.0833 15.1199 93.9793 15.1199ZM106.703 17.3999C105.727 17.3999 104.919 17.2239 104.279 16.8719C103.639 16.5039 103.159 15.9599 102.839 15.2399C102.535 14.5199 102.383 13.6239 102.383 12.5519V6.74391C102.383 6.23191 102.511 5.85591 102.767 5.61591C103.023 5.35991 103.391 5.23191 103.871 5.23191C104.351 5.23191 104.719 5.35991 104.975 5.61591C105.247 5.85591 105.383 6.23191 105.383 6.74391V12.5999C105.383 13.4319 105.551 14.0479 105.887 14.4479C106.223 14.8479 106.759 15.0479 107.495 15.0479C108.295 15.0479 108.951 14.7759 109.463 14.2319C109.975 13.6719 110.231 12.9359 110.231 12.0239V6.74391C110.231 6.23191 110.359 5.85591 110.615 5.61591C110.871 5.35991 111.239 5.23191 111.719 5.23191C112.199 5.23191 112.567 5.35991 112.823 5.61591C113.095 5.85591 113.231 6.23191 113.231 6.74391V15.8159C113.231 16.8399 112.743 17.3519 111.767 17.3519C111.303 17.3519 110.943 17.2239 110.687 16.9679C110.431 16.6959 110.303 16.3119 110.303 15.8159V13.9919L110.639 14.7119C110.303 15.5759 109.791 16.2399 109.103 16.7039C108.431 17.1679 107.631 17.3999 106.703 17.3999ZM117.89 17.3519C117.394 17.3519 117.01 17.2239 116.738 16.9679C116.482 16.6959 116.354 16.3119 116.354 15.8159V6.74391C116.354 6.24791 116.482 5.87191 116.738 5.61591C116.994 5.35991 117.354 5.23191 117.818 5.23191C118.282 5.23191 118.642 5.35991 118.898 5.61591C119.154 5.87191 119.282 6.24791 119.282 6.74391V8.25591H119.042C119.266 7.29591 119.706 6.56791 120.362 6.07191C121.018 5.57591 121.89 5.27991 122.978 5.18391C123.314 5.15191 123.578 5.23991 123.77 5.44791C123.978 5.63991 124.098 5.94391 124.13 6.35991C124.162 6.75991 124.066 7.08791 123.842 7.34391C123.634 7.58391 123.314 7.72791 122.882 7.77591L122.354 7.82391C121.378 7.91991 120.642 8.22391 120.146 8.73591C119.65 9.23191 119.402 9.93591 119.402 10.8479V15.8159C119.402 16.3119 119.274 16.6959 119.018 16.9679C118.762 17.2239 118.386 17.3519 117.89 17.3519ZM139.036 17.3999C138.044 17.3999 137.172 17.1519 136.42 16.6559C135.684 16.1599 135.196 15.4959 134.956 14.6639L135.22 14.0639V15.8159C135.22 16.3119 135.092 16.6959 134.836 16.9679C134.58 17.2239 134.22 17.3519 133.756 17.3519C133.276 17.3519 132.908 17.2239 132.652 16.9679C132.396 16.6959 132.268 16.3119 132.268 15.8159V1.55991C132.268 1.06391 132.396 0.687911 132.652 0.431911C132.908 0.175911 133.276 0.0479107 133.756 0.0479107C134.236 0.0479107 134.604 0.175911 134.86 0.431911C135.132 0.687911 135.268 1.06391 135.268 1.55991V7.79991H134.98C135.236 7.01591 135.732 6.38391 136.468 5.90391C137.204 5.42391 138.06 5.18391 139.036 5.18391C140.076 5.18391 140.98 5.43191 141.748 5.92791C142.516 6.42391 143.116 7.12791 143.548 8.03991C143.98 8.93591 144.196 10.0159 144.196 11.2799C144.196 12.5279 143.98 13.6159 143.548 14.5439C143.116 15.4559 142.508 16.1599 141.724 16.6559C140.956 17.1519 140.06 17.3999 139.036 17.3999ZM138.196 15.1199C138.788 15.1199 139.308 14.9759 139.756 14.6879C140.204 14.3999 140.548 13.9759 140.788 13.4159C141.044 12.8399 141.172 12.1279 141.172 11.2799C141.172 9.99991 140.9 9.04791 140.356 8.42391C139.812 7.78391 139.092 7.46391 138.196 7.46391C137.604 7.46391 137.084 7.60791 136.636 7.89591C136.188 8.16791 135.836 8.59191 135.58 9.16791C135.34 9.72791 135.22 10.4319 135.22 11.2799C135.22 12.5439 135.492 13.5039 136.036 14.1599C136.58 14.7999 137.3 15.1199 138.196 15.1199ZM152.011 17.3999C150.795 17.3999 149.739 17.1519 148.843 16.6559C147.947 16.1599 147.251 15.4559 146.755 14.5439C146.259 13.6159 146.011 12.5279 146.011 11.2799C146.011 10.3359 146.147 9.49591 146.419 8.75991C146.707 8.00791 147.115 7.36791 147.643 6.83991C148.171 6.29591 148.803 5.88791 149.539 5.61591C150.275 5.32791 151.099 5.18391 152.011 5.18391C153.227 5.18391 154.283 5.43191 155.179 5.92791C156.075 6.42391 156.771 7.12791 157.267 8.03991C157.763 8.95191 158.011 10.0319 158.011 11.2799C158.011 12.2239 157.867 13.0719 157.579 13.8239C157.307 14.5759 156.907 15.2239 156.379 15.7679C155.851 16.2959 155.219 16.7039 154.483 16.9919C153.747 17.2639 152.923 17.3999 152.011 17.3999ZM152.011 15.1199C152.603 15.1199 153.123 14.9759 153.571 14.6879C154.019 14.3999 154.363 13.9759 154.603 13.4159C154.859 12.8399 154.987 12.1279 154.987 11.2799C154.987 9.99991 154.715 9.04791 154.171 8.42391C153.627 7.78391 152.907 7.46391 152.011 7.46391C151.419 7.46391 150.899 7.60791 150.451 7.89591C150.003 8.16791 149.651 8.59191 149.395 9.16791C149.155 9.72791 149.035 10.4319 149.035 11.2799C149.035 12.5439 149.307 13.5039 149.851 14.1599C150.395 14.7999 151.115 15.1199 152.011 15.1199ZM164.351 17.3999C163.503 17.3999 162.743 17.2399 162.071 16.9199C161.415 16.5839 160.895 16.1359 160.511 15.5759C160.143 15.0159 159.959 14.3839 159.959 13.6799C159.959 12.8159 160.183 12.1359 160.631 11.6399C161.079 11.1279 161.807 10.7599 162.815 10.5359C163.823 10.3119 165.175 10.1999 166.871 10.1999H168.071V11.9279H166.895C165.903 11.9279 165.111 11.9759 164.519 12.0719C163.927 12.1679 163.503 12.3359 163.247 12.5759C163.007 12.7999 162.887 13.1199 162.887 13.5359C162.887 14.0639 163.071 14.4959 163.439 14.8319C163.807 15.1679 164.319 15.3359 164.975 15.3359C165.503 15.3359 165.967 15.2159 166.367 14.9759C166.783 14.7199 167.111 14.3759 167.351 13.9439C167.591 13.5119 167.711 13.0159 167.711 12.4559V9.69591C167.711 8.89591 167.535 8.31991 167.183 7.96791C166.831 7.61591 166.239 7.43991 165.407 7.43991C164.943 7.43991 164.439 7.49591 163.895 7.60791C163.367 7.71991 162.807 7.91191 162.215 8.18391C161.911 8.32791 161.639 8.36791 161.399 8.30391C161.175 8.23991 160.999 8.11191 160.871 7.91991C160.743 7.71191 160.679 7.48791 160.679 7.24791C160.679 7.00791 160.743 6.77591 160.871 6.55191C160.999 6.31191 161.215 6.13591 161.519 6.02391C162.255 5.71991 162.959 5.50391 163.631 5.37591C164.319 5.24791 164.943 5.18391 165.503 5.18391C166.655 5.18391 167.599 5.35991 168.335 5.71191C169.087 6.06391 169.647 6.59991 170.015 7.31991C170.383 8.02391 170.567 8.93591 170.567 10.0559V15.8159C170.567 16.3119 170.447 16.6959 170.207 16.9679C169.967 17.2239 169.623 17.3519 169.175 17.3519C168.727 17.3519 168.375 17.2239 168.119 16.9679C167.879 16.6959 167.759 16.3119 167.759 15.8159V14.6639H167.951C167.839 15.2239 167.615 15.7119 167.279 16.1279C166.959 16.5279 166.551 16.8399 166.055 17.0639C165.559 17.2879 164.991 17.3999 164.351 17.3999ZM175.148 17.3519C174.652 17.3519 174.268 17.2239 173.996 16.9679C173.74 16.6959 173.612 16.3119 173.612 15.8159V6.74391C173.612 6.24791 173.74 5.87191 173.996 5.61591C174.252 5.35991 174.612 5.23191 175.076 5.23191C175.54 5.23191 175.9 5.35991 176.156 5.61591C176.412 5.87191 176.54 6.24791 176.54 6.74391V8.25591H176.3C176.524 7.29591 176.964 6.56791 177.62 6.07191C178.276 5.57591 179.148 5.27991 180.236 5.18391C180.572 5.15191 180.836 5.23991 181.028 5.44791C181.236 5.63991 181.356 5.94391 181.388 6.35991C181.42 6.75991 181.324 7.08791 181.1 7.34391C180.892 7.58391 180.572 7.72791 180.14 7.77591L179.612 7.82391C178.636 7.91991 177.9 8.22391 177.404 8.73591C176.908 9.23191 176.66 9.93591 176.66 10.8479V15.8159C176.66 16.3119 176.532 16.6959 176.276 16.9679C176.02 17.2239 175.644 17.3519 175.148 17.3519ZM187.335 17.3999C186.311 17.3999 185.407 17.1519 184.623 16.6559C183.855 16.1599 183.255 15.4559 182.823 14.5439C182.391 13.6159 182.175 12.5279 182.175 11.2799C182.175 10.0159 182.391 8.93591 182.823 8.03991C183.255 7.12791 183.855 6.42391 184.623 5.92791C185.407 5.43191 186.311 5.18391 187.335 5.18391C188.311 5.18391 189.159 5.42391 189.879 5.90391C190.615 6.38391 191.111 7.01591 191.367 7.79991H191.103V1.55991C191.103 1.06391 191.231 0.687911 191.487 0.431911C191.743 0.175911 192.111 0.0479107 192.591 0.0479107C193.071 0.0479107 193.439 0.175911 193.695 0.431911C193.967 0.687911 194.103 1.06391 194.103 1.55991V15.8159C194.103 16.3119 193.975 16.6959 193.719 16.9679C193.463 17.2239 193.095 17.3519 192.615 17.3519C192.135 17.3519 191.767 17.2239 191.511 16.9679C191.255 16.6959 191.127 16.3119 191.127 15.8159V13.9439L191.391 14.6639C191.151 15.4959 190.663 16.1599 189.927 16.6559C189.191 17.1519 188.327 17.3999 187.335 17.3999ZM188.175 15.1199C188.767 15.1199 189.287 14.9759 189.735 14.6879C190.183 14.3999 190.527 13.9759 190.767 13.4159C191.023 12.8399 191.151 12.1279 191.151 11.2799C191.151 9.99991 190.879 9.04791 190.335 8.42391C189.791 7.78391 189.071 7.46391 188.175 7.46391C187.583 7.46391 187.063 7.60791 186.615 7.89591C186.167 8.16791 185.815 8.59191 185.559 9.16791C185.319 9.72791 185.199 10.4319 185.199 11.2799C185.199 12.5439 185.471 13.5039 186.015 14.1599C186.559 14.7999 187.279 15.1199 188.175 15.1199Z" fill="#4D4D4D"/>
</svg>
