<svg width="210" height="230" viewBox="0 0 210 230" fill="none" xmlns="http://www.w3.org/2000/svg">
<path fillRule="evenodd" clipRule="evenodd" d="M17.4053 183.951C16.0554 183.278 15.1473 181.957 15.0021 180.456C13.5878 165.791 6.15956 88.7816 4.69517 73.5989C4.54076 71.9979 5.27806 70.4401 6.61564 69.5439C20.3279 60.3566 94.8277 10.4415 109.307 0.74083C110.783 -0.247965 112.709 -0.246946 114.183 0.743907C127.937 9.98878 195.693 55.5299 208.065 63.8467C209.278 64.6627 210.004 66.0301 210 67.4922C209.958 81.2211 209.747 151.191 209.705 165.085C209.7 166.58 208.933 167.969 207.67 168.768C194.877 176.867 125.473 220.805 112.515 229.008C111.221 229.827 109.593 229.91 108.223 229.227C95.3563 222.812 30.1696 190.315 17.4053 183.951Z" fill="#F6268B"/>
<path fillRule="evenodd" clipRule="evenodd" d="M12.809 184.256C11.411 183.599 10.4641 182.254 10.3158 180.717C8.88723 165.907 1.49474 89.2629 0.0201209 73.9782C-0.13634 72.3494 0.628557 70.768 2.005 69.8811C15.9954 60.8605 91.2499 12.3427 105.686 3.03505C107.142 2.09564 109.016 2.10487 110.463 3.05766C124.013 11.9805 191.237 56.2468 203.641 64.4144C204.87 65.2231 205.609 66.5967 205.609 68.0681C205.609 81.6869 205.609 150.149 205.609 163.843C205.609 165.331 204.853 166.716 203.604 167.522C190.996 175.644 122.82 219.565 110.119 227.747C108.852 228.564 107.253 228.67 105.889 228.029C92.8809 221.911 25.9823 190.451 12.809 184.256Z" fill="black"/>
<path fillRule="evenodd" clipRule="evenodd" d="M91.5895 58.2092C92.173 58.1295 92.7644 58.2892 93.2288 58.6516C93.6933 59.0154 93.991 59.5498 94.0549 60.1366C95.6664 74.8987 104.836 159.131 106.441 173.875C106.505 174.461 106.33 175.048 105.955 175.503C105.58 175.958 105.037 176.243 104.448 176.293C70.1761 178.963 40.0171 155.957 36.5408 124.023C33.0647 92.0904 57.5564 63.0635 91.5895 58.2092Z" fill="#8726F6"/>
<path fillRule="evenodd" clipRule="evenodd" d="M88.6447 58.3936C89.2282 58.3139 89.8197 58.4739 90.2841 58.8366C90.7484 59.1994 91.0463 59.7343 91.11 60.3202C92.7225 75.0912 101.901 159.411 103.507 174.164C103.571 174.75 103.397 175.338 103.022 175.794C102.646 176.249 102.103 176.532 101.515 176.582C67.2426 179.251 37.0811 156.223 33.6018 124.26C30.1225 92.2989 54.6118 63.2489 88.6447 58.3936Z" fill="#F6EC24"/>
<path fillRule="evenodd" clipRule="evenodd" d="M86.1326 111.339C87.2728 111.122 88.0442 110.052 87.8905 108.902C87.2915 104.4 85.8639 93.6875 85.252 89.0933C85.0936 87.9026 85.9254 86.806 87.1149 86.6385C91.1016 86.0772 99.5983 84.8808 103.644 84.3111C104.23 84.2287 104.823 84.3868 105.29 84.7491C105.758 85.1121 106.058 85.6477 106.123 86.2354C106.691 91.3393 108.073 103.779 108.626 108.745C108.755 109.915 109.788 110.773 110.963 110.685C114.984 110.383 123.731 109.728 127.942 109.412C128.551 109.366 129.15 109.576 129.597 109.992C130.043 110.407 130.295 110.99 130.294 111.6C130.279 115.733 130.248 124.2 130.234 128.135C130.23 129.307 129.304 130.268 128.133 130.314C124.56 130.453 117.319 130.737 113.641 130.881C113.05 130.904 112.494 131.166 112.099 131.606C111.704 132.046 111.504 132.628 111.544 133.218C111.826 137.296 112.417 145.848 112.684 149.707C112.76 150.823 111.983 151.818 110.881 152.012C107.439 152.618 100.283 153.88 96.6899 154.515C96.1178 154.615 95.5289 154.484 95.0535 154.151C94.5781 153.817 94.2545 153.308 94.1551 152.736C93.3636 148.194 91.537 137.717 90.7791 133.365C90.5863 132.258 89.5855 131.478 88.4653 131.559C84.7355 131.831 76.6893 132.416 72.9068 132.691C71.7571 132.775 70.7405 131.952 70.5817 130.811C70.0985 127.337 69.1184 120.29 68.6324 116.795C68.4719 115.641 69.2439 114.563 70.3884 114.344C74.1958 113.618 82.3341 112.065 86.1326 111.339Z" fill="#F6EC24"/>
<path fillRule="evenodd" clipRule="evenodd" d="M83.9916 111.604C85.1318 111.387 85.9032 110.317 85.7495 109.166C85.1505 104.665 83.7229 93.9521 83.111 89.3579C82.9526 88.1671 83.7844 87.0705 84.974 86.903C88.9606 86.3417 97.4573 85.1453 101.503 84.5757C102.089 84.4932 102.682 84.6513 103.149 85.0136C103.617 85.3766 103.917 85.9122 103.982 86.4999C104.55 91.6038 105.932 104.044 106.485 109.01C106.614 110.18 107.647 111.038 108.822 110.95C112.843 110.648 121.59 109.992 125.801 109.676C126.41 109.631 127.009 109.841 127.456 110.257C127.902 110.672 128.154 111.255 128.153 111.865C128.138 115.998 128.107 124.465 128.093 128.399C128.089 129.571 127.163 130.532 125.992 130.578C122.42 130.718 115.183 131.001 111.504 131.146C110.913 131.169 110.355 131.431 109.961 131.872C109.566 132.313 109.366 132.896 109.409 133.486C109.7 137.602 110.316 146.269 110.591 150.142C110.67 151.25 109.907 152.241 108.815 152.448C105.387 153.096 98.2176 154.451 94.6029 155.135C94.0266 155.244 93.431 155.117 92.9491 154.783C92.4683 154.449 92.1404 153.935 92.0412 153.358C91.2428 148.734 89.3962 138.042 88.635 133.634C88.4438 132.525 87.4428 131.743 86.3208 131.824C82.59 132.095 74.5466 132.681 70.7658 132.956C69.6161 133.04 68.5995 132.217 68.4407 131.075C67.9576 127.601 66.9774 120.554 66.4914 117.06C66.3309 115.906 67.1029 114.827 68.2474 114.609C72.0548 113.882 80.1931 112.329 83.9916 111.604Z" fill="#8726F6"/>
<path fillRule="evenodd" clipRule="evenodd" d="M143.225 88.221C144.372 88.0398 145.178 86.9933 145.059 85.8371C144.699 82.3097 143.967 75.1464 143.6 71.5607C143.478 70.3702 144.336 69.3028 145.524 69.1651C148.565 68.8114 154.107 68.1667 157.205 67.8068C157.795 67.7381 158.387 67.912 158.846 68.2885C159.305 68.665 159.591 69.2115 159.638 69.8033C159.966 73.8528 160.649 82.291 160.967 86.2222C161.062 87.3947 162.066 88.282 163.241 88.2318C166.319 88.0997 172.032 87.8543 175.25 87.7168C175.859 87.6903 176.452 87.9197 176.884 88.3491C177.317 88.779 177.551 89.3694 177.53 89.9791C177.419 93.1188 177.226 98.6151 177.121 101.613C177.079 102.785 176.122 103.715 174.95 103.724C172.255 103.743 167.595 103.777 164.831 103.796C164.242 103.8 163.679 104.042 163.27 104.468C162.861 104.893 162.642 105.465 162.661 106.054C162.759 109.136 162.936 114.634 163.03 117.568C163.065 118.689 162.247 119.656 161.136 119.806C158.442 120.17 153.602 120.824 150.779 121.205C150.197 121.283 149.607 121.124 149.143 120.764C148.679 120.402 148.38 119.87 148.313 119.286C147.912 115.785 147.137 109.032 146.75 105.66C146.62 104.521 145.633 103.676 144.488 103.723C141.618 103.84 136.404 104.052 133.524 104.169C132.373 104.216 131.383 103.361 131.261 102.215C130.979 99.5846 130.492 95.0277 130.208 92.3804C130.084 91.2214 130.891 90.1686 132.042 89.9869C134.968 89.5249 140.304 88.6818 143.225 88.221Z" fill="#F6EC24"/>
<path fillRule="evenodd" clipRule="evenodd" d="M141.332 88.2201C142.478 88.0397 143.284 86.9945 143.167 85.839C142.81 82.3166 142.087 75.167 141.724 71.5753C141.603 70.3792 142.469 69.3094 143.665 69.1799C146.718 68.8492 152.27 68.2478 155.366 67.9124C155.953 67.8488 156.542 68.0259 156.997 68.4028C157.452 68.7797 157.735 69.3252 157.783 69.9143C158.101 73.9335 158.765 82.3044 159.075 86.2191C159.168 87.3925 160.173 88.2818 161.349 88.2314C164.428 88.0992 170.137 87.8549 173.355 87.7167C173.964 87.6903 174.557 87.9197 174.989 88.3491C175.422 88.779 175.656 89.3693 175.635 89.9791C175.524 93.1188 175.331 98.6151 175.226 101.613C175.184 102.785 174.227 103.715 173.055 103.724C170.365 103.743 165.718 103.777 162.952 103.796C162.36 103.8 161.795 104.045 161.386 104.473C160.977 104.902 160.759 105.478 160.782 106.07C160.906 109.226 161.13 114.905 161.247 117.885C161.291 118.995 160.496 119.962 159.399 120.133C156.789 120.54 152.141 121.267 149.399 121.695C148.82 121.785 148.229 121.64 147.758 121.29C147.287 120.941 146.977 120.418 146.895 119.837C146.387 116.217 145.384 109.061 144.898 105.603C144.743 104.489 143.767 103.675 142.643 103.721C139.784 103.837 134.525 104.051 131.629 104.169C130.478 104.216 129.488 103.361 129.365 102.215C129.084 99.5846 128.596 95.0277 128.313 92.3804C128.189 91.2214 128.995 90.1685 130.147 89.9869C133.074 89.5248 138.411 88.6815 141.332 88.2201Z" fill="#8726F6"/>
</svg>
